# xmcd
#
# Track frame offsets: 
#        150
#        22925
#        52495
#        79345
#        107340
#        119555
#        148187
#        170200
#        193777
#
# Disc length: 2870 seconds
#
# Revision: 2
# Processed by: cddbd v1.5.1PL2 Copyright (c) Steve Scherf et al.
# Submitted via: ExactAudioCopy v0.95a5
#
DISCID=860b3409
DTITLE=Salsa D' Esquina - Huellas
DYEAR=1994
DGENRE=Salsa
TTITLE0=Enséñame Sin Medida
TTITLE1=La Chica Habana
TTITLE2=Me Siento Todo De Tí
TTITLE3=Huellas
TTITLE4=Mensaje De Amor
TTITLE5=Me Estoy Llenando De Tí
TTITLE6=La Especuladora
TTITLE7=Amor Perdido
TTITLE8=Se Soltó La Loca
EXTD=YEAR: 1994
EXTT0=
EXTT1=
EXTT2=
EXTT3=
EXTT4=
EXTT5=
EXTT6=
EXTT7=
EXTT8=
PLAYORDER=
